<mxfile host="65bd71144e">
    <diagram id="yTmK1COVN9W2amCt5FWT" name="ResourceManager">
        <mxGraphModel dx="1210" dy="730" grid="0" gridSize="10" guides="1" tooltips="1" connect="1" arrows="1" fold="1" page="0" pageScale="1" pageWidth="1169" pageHeight="827" math="0" shadow="0">
            <root>
                <mxCell id="0"/>
                <mxCell id="1" parent="0"/>
                <mxCell id="2" value="&lt;font style=&quot;font-size: 18px&quot;&gt;HEADER&lt;/font&gt;" style="rounded=1;whiteSpace=wrap;html=1;fillColor=#0050ef;strokeColor=#001DBC;fontColor=#ffffff;gradientColor=#ffffff;fontStyle=1" parent="1" vertex="1">
                    <mxGeometry width="800" height="70" as="geometry"/>
                </mxCell>
                <mxCell id="3" value="FOOTER" style="rounded=1;whiteSpace=wrap;html=1;fontSize=18;fillColor=#0050ef;fontColor=#ffffff;strokeColor=#001DBC;gradientColor=#ffffff;" parent="1" vertex="1">
                    <mxGeometry y="560" width="800" height="60" as="geometry"/>
                </mxCell>
                <mxCell id="4" value="" style="html=1;verticalLabelPosition=bottom;align=center;labelBackgroundColor=#ffffff;verticalAlign=top;strokeWidth=2;strokeColor=#0080F0;shadow=0;dashed=0;shape=mxgraph.ios7.icons.page_navigation;pointerEvents=1;fontSize=12;rounded=1;" parent="1" vertex="1">
                    <mxGeometry x="10" y="20" width="30" height="30" as="geometry"/>
                </mxCell>
                <mxCell id="5" value="" style="html=1;verticalLabelPosition=bottom;align=center;labelBackgroundColor=#ffffff;verticalAlign=top;strokeWidth=2;strokeColor=#0080F0;shadow=0;dashed=0;shape=mxgraph.ios7.icons.up;fontSize=12;rounded=1;" parent="1" vertex="1">
                    <mxGeometry x="760" y="80" width="21" height="25.5" as="geometry"/>
                </mxCell>
                <mxCell id="6" value="" style="strokeWidth=1;shadow=0;dashed=0;align=center;html=1;shape=mxgraph.mockup.containers.rrect;rSize=0;fontSize=12;rounded=1;" parent="1" vertex="1">
                    <mxGeometry y="80" width="150" height="480" as="geometry"/>
                </mxCell>
                <mxCell id="7" value="&lt;font color=&quot;#3399ff&quot; size=&quot;1&quot;&gt;&lt;span style=&quot;font-weight: normal ; font-size: 13px&quot;&gt;Dashboard&lt;/span&gt;&lt;/font&gt;" style="strokeColor=inherit;fillColor=inherit;gradientColor=inherit;strokeWidth=1;shadow=0;dashed=0;align=center;html=1;shape=mxgraph.mockup.containers.rrect;rSize=0;fontSize=17;fontColor=#666666;fontStyle=1;resizeWidth=1;rounded=1;" parent="6" vertex="1">
                    <mxGeometry width="150" height="26" relative="1" as="geometry"/>
                </mxCell>
                <mxCell id="8" value="" style="strokeColor=inherit;fillColor=inherit;gradientColor=inherit;strokeWidth=1;shadow=0;dashed=0;align=center;html=1;shape=mxgraph.mockup.containers.rrect;rSize=0;fontSize=17;fontColor=#666666;fontStyle=1;resizeWidth=1;rounded=1;" parent="6" vertex="1">
                    <mxGeometry width="150" height="26" relative="1" as="geometry">
                        <mxPoint y="26" as="offset"/>
                    </mxGeometry>
                </mxCell>
                <mxCell id="9" value="&lt;font color=&quot;#66b2ff&quot; size=&quot;1&quot;&gt;&lt;b&gt;&lt;i&gt;&lt;u style=&quot;font-size: 16px&quot;&gt;Resource Manager&lt;/u&gt;&lt;/i&gt;&lt;/b&gt;&lt;/font&gt;" style="strokeWidth=1;shadow=0;dashed=0;align=center;html=1;shape=mxgraph.mockup.containers.rrect;rSize=0;fontSize=13;fontStyle=0;resizeWidth=1;verticalAlign=middle;rounded=1;" parent="6" vertex="1">
                    <mxGeometry width="150" height="26" relative="1" as="geometry">
                        <mxPoint y="52" as="offset"/>
                    </mxGeometry>
                </mxCell>
                <mxCell id="10" value="" style="strokeColor=inherit;fillColor=inherit;gradientColor=inherit;strokeWidth=1;shadow=0;dashed=0;align=center;html=1;shape=mxgraph.mockup.containers.rrect;rSize=0;fontSize=17;fontColor=#666666;fontStyle=1;resizeWidth=1;rounded=1;" parent="6" vertex="1">
                    <mxGeometry y="1" width="150" height="26" relative="1" as="geometry">
                        <mxPoint y="-26" as="offset"/>
                    </mxGeometry>
                </mxCell>
                <mxCell id="11" value="&lt;table cellpadding=&quot;4&quot; cellspacing=&quot;0&quot; border=&quot;1&quot; style=&quot;font-size: 1em ; width: 100% ; height: 100%&quot;&gt;&lt;tbody&gt;&lt;tr&gt;&lt;th&gt;Machine Name&lt;/th&gt;&lt;th&gt;Give Name&lt;/th&gt;&lt;/tr&gt;&lt;tr&gt;&lt;td&gt;Sample Machine&lt;/td&gt;&lt;td&gt;SM!&lt;/td&gt;&lt;/tr&gt;&lt;tr&gt;&lt;td&gt;&lt;/td&gt;&lt;td&gt;&lt;br&gt;&lt;/td&gt;&lt;/tr&gt;&lt;/tbody&gt;&lt;/table&gt; " style="verticalAlign=top;align=left;overflow=fill;fontSize=12;fontFamily=Helvetica;html=1;shadow=0;rounded=1;" parent="1" vertex="1">
                    <mxGeometry x="161" y="120" width="169" height="110" as="geometry"/>
                </mxCell>
                <mxCell id="12" value="&lt;table cellpadding=&quot;4&quot; cellspacing=&quot;0&quot; border=&quot;1&quot; style=&quot;font-size: 1em ; width: 100% ; height: 100%&quot;&gt;&lt;tbody&gt;&lt;tr&gt;&lt;th&gt;IsActive&lt;/th&gt;&lt;th&gt;Purchase Date&lt;/th&gt;&lt;/tr&gt;&lt;tr&gt;&lt;td&gt;&lt;/td&gt;&lt;td&gt;22/01/2022&lt;/td&gt;&lt;/tr&gt;&lt;tr&gt;&lt;td&gt;&lt;/td&gt;&lt;td&gt;&lt;br&gt;&lt;/td&gt;&lt;/tr&gt;&lt;/tbody&gt;&lt;/table&gt; " style="verticalAlign=top;align=left;overflow=fill;fontSize=12;fontFamily=Helvetica;html=1;shadow=0;rounded=1;" parent="1" vertex="1">
                    <mxGeometry x="330" y="120" width="159" height="110" as="geometry"/>
                </mxCell>
                <mxCell id="13" value="App Navigation&amp;nbsp;" style="whiteSpace=wrap;html=1;shape=mxgraph.basic.oval_callout;fillColor=#e3c800;fontColor=#000000;strokeColor=#B09500;flipH=1;" parent="1" vertex="1">
                    <mxGeometry x="-136" y="55" width="171" height="87" as="geometry"/>
                </mxCell>
                <mxCell id="14" value="Machine Add &amp;amp; Information Export Actions" style="whiteSpace=wrap;html=1;shape=mxgraph.basic.oval_callout;fillColor=#e3c800;fontColor=#000000;strokeColor=#B09500;" parent="1" vertex="1">
                    <mxGeometry x="750" y="10" width="171" height="87" as="geometry"/>
                </mxCell>
                <mxCell id="15" value="&lt;font color=&quot;#66b2ff&quot;&gt;SELECT A ENTITY&lt;/font&gt;" style="rounded=1;whiteSpace=wrap;html=1;fontColor=#FFFFFF;strokeColor=default;fillColor=default;gradientColor=none;verticalAlign=middle;labelBorderColor=none;" parent="1" vertex="1">
                    <mxGeometry x="160.5" y="77.4" width="559.5" height="26" as="geometry"/>
                </mxCell>
                <mxCell id="16" value="" style="shape=offPageConnector;whiteSpace=wrap;html=1;rounded=1;fontColor=#FFFFFF;strokeColor=default;fillColor=default;size=0.7333333333333333;" parent="1" vertex="1">
                    <mxGeometry x="690" y="82" width="23" height="15" as="geometry"/>
                </mxCell>
                <mxCell id="17" value="" style="html=1;verticalLabelPosition=bottom;labelBackgroundColor=#ffffff;verticalAlign=top;shadow=0;dashed=0;strokeWidth=2;shape=mxgraph.ios7.misc.flagged;strokeColor=#0080f0;rounded=1;labelBorderColor=none;fontSize=16;fontColor=#66B2FF;fillColor=default;gradientColor=none;" parent="1" vertex="1">
                    <mxGeometry x="730" y="80" width="20" height="20" as="geometry"/>
                </mxCell>
                <mxCell id="18" value="" style="html=1;verticalLabelPosition=bottom;labelBackgroundColor=#ffffff;verticalAlign=top;shadow=0;dashed=0;strokeWidth=2;shape=mxgraph.ios7.misc.check;strokeColor=#66FF66;rounded=1;labelBorderColor=none;fontSize=16;fontColor=#66B2FF;fillColor=default;gradientColor=none;" parent="1" vertex="1">
                    <mxGeometry x="350" y="170" width="17" height="10" as="geometry"/>
                </mxCell>
                <mxCell id="19" value="&lt;table cellpadding=&quot;4&quot; cellspacing=&quot;0&quot; border=&quot;1&quot; style=&quot;font-size: 1em ; width: 100% ; height: 100%&quot;&gt;&lt;tbody&gt;&lt;tr&gt;&lt;th&gt;MachineId&lt;/th&gt;&lt;th&gt;Induction Date&lt;/th&gt;&lt;/tr&gt;&lt;tr&gt;&lt;td&gt;&lt;/td&gt;&lt;td&gt;22/01/2022&lt;/td&gt;&lt;/tr&gt;&lt;tr&gt;&lt;td&gt;&lt;/td&gt;&lt;td&gt;&lt;br&gt;&lt;/td&gt;&lt;/tr&gt;&lt;/tbody&gt;&lt;/table&gt; " style="verticalAlign=top;align=left;overflow=fill;fontSize=12;fontFamily=Helvetica;html=1;shadow=0;rounded=1;" parent="1" vertex="1">
                    <mxGeometry x="489" y="120" width="159" height="110" as="geometry"/>
                </mxCell>
                <mxCell id="20" value="&lt;table cellpadding=&quot;4&quot; cellspacing=&quot;0&quot; border=&quot;1&quot; style=&quot;font-size: 1em ; width: 100% ; height: 100%&quot;&gt;&lt;tbody&gt;&lt;tr&gt;&lt;th&gt;Deptt.&lt;/th&gt;&lt;th&gt;Manual&lt;/th&gt;&lt;/tr&gt;&lt;tr&gt;&lt;td&gt;&lt;/td&gt;&lt;td&gt;&lt;br&gt;&lt;/td&gt;&lt;/tr&gt;&lt;tr&gt;&lt;td&gt;&lt;/td&gt;&lt;td&gt;&lt;br&gt;&lt;/td&gt;&lt;/tr&gt;&lt;/tbody&gt;&lt;/table&gt; " style="verticalAlign=top;align=left;overflow=fill;fontSize=12;fontFamily=Helvetica;html=1;shadow=0;rounded=1;" parent="1" vertex="1">
                    <mxGeometry x="648" y="120" width="159" height="110" as="geometry"/>
                </mxCell>
                <mxCell id="21" value="" style="verticalLabelPosition=bottom;verticalAlign=top;html=1;shadow=0;dashed=0;strokeWidth=1;shape=mxgraph.ios.iInfoIcon;fillColor=#8BbEff;fillColor2=#135Ec8;strokeColor=#ffffff;sketch=0;rounded=1;labelBorderColor=none;fontSize=16;fontColor=#66B2FF;" parent="1" vertex="1">
                    <mxGeometry x="730" y="167.5" width="15" height="15" as="geometry"/>
                </mxCell>
            </root>
        </mxGraphModel>
    </diagram>
</mxfile>
